<?xml version="1.0" encoding="utf-8"?>
<!-- Generator: Adobe Illustrator 16.0.0, SVG Export Plug-In . SVG Version: 6.00 Build 0)  -->
<!DOCTYPE svg PUBLIC "-//W3C//DTD SVG 1.1//EN" "http://www.w3.org/Graphics/SVG/1.1/DTD/svg11.dtd">
<svg version="1.1" id="Layer_1" xmlns="http://www.w3.org/2000/svg" xmlns:xlink="http://www.w3.org/1999/xlink" x="0px" y="0px"
	 width="816px" height="250px" viewBox="0 0 816 250" enable-background="new 0 0 816 250" xml:space="preserve">
<g id="BitCell1" enable-background="new    ">
	<g id="ClockCell1">
		<g>
			<rect fill="#404040" width="24" height="250"/>
		</g>
	</g>
</g>
<g id="BitCell2" enable-background="new    ">
	<g id="DataCell1">
		<g>
			<rect x="24" fill="#C0C0C0" width="96" height="250"/>
		</g>
	</g>
</g>
<g id="BitCell3" enable-background="new    ">
	<g id="ClockCell2">
		<g>
			<rect x="120" fill="#404040" width="96" height="250"/>
		</g>
	</g>
</g>
<g id="BitCell4" enable-background="new    ">
	<g id="DataCell2">
		<g>
			<rect x="216" fill="#C0C0C0" width="96" height="250"/>
		</g>
	</g>
</g>
<g id="BitCell5" enable-background="new    ">
	<g id="ClockCell3">
		<g>
			<rect x="312" fill="#404040" width="96" height="250"/>
		</g>
	</g>
</g>
<g id="BitCell6" enable-background="new    ">
	<g id="DataCel3">
		<g>
			<rect x="408" fill="#C0C0C0" width="96" height="250"/>
		</g>
	</g>
</g>
<g id="BitCell7" enable-background="new    ">
	<g id="ClockCell4">
		<g>
			<rect x="504" fill="#404040" width="96" height="250"/>
		</g>
	</g>
</g>
<g id="BitCell8" enable-background="new    ">
	<g id="DataCel4">
		<g>
			<rect x="600" fill="#C0C0C0" width="96" height="250"/>
		</g>
	</g>
</g>
<g id="BitCell9" enable-background="new    ">
	<g id="ClockCell5">
		<g>
			<rect x="696" fill="#404040" width="96" height="250"/>
		</g>
	</g>
</g>
<g id="BitCell10" enable-background="new    ">
	<g id="DataCel5">
		<g>
			<rect x="792" fill="#C0C0C0" width="24" height="250"/>
		</g>
	</g>
</g>
<g id="ClockBit1" enable-background="new    ">
	<path fill="#FFFFFF" d="M6.967,205.786c0-6.094,0.627-10.998,1.881-14.713c1.253-3.715,3.117-6.58,5.59-8.596
		c2.473-2.016,5.584-3.023,9.334-3.023c2.765,0,5.191,0.557,7.277,1.67c2.086,1.113,3.809,2.719,5.168,4.816
		c1.359,2.098,2.426,4.652,3.199,7.664s1.16,7.072,1.16,12.182c0,6.047-0.621,10.928-1.863,14.643
		c-1.243,3.715-3.1,6.586-5.572,8.613c-2.473,2.027-5.596,3.041-9.369,3.041c-4.969,0-8.872-1.781-11.707-5.344
		C8.666,222.45,6.967,215.466,6.967,205.786z M13.471,205.786c0,8.461,0.99,14.092,2.971,16.893c1.98,2.801,4.424,4.201,7.33,4.201
		c2.906,0,5.349-1.406,7.33-4.219c1.98-2.813,2.971-8.438,2.971-16.875c0-8.484-0.99-14.121-2.971-16.91
		c-1.981-2.789-4.447-4.184-7.4-4.184c-2.906,0-5.227,1.23-6.961,3.691C14.561,191.524,13.471,197.325,13.471,205.786z"/>
</g>
<g enable-background="new    ">
	<path fill="#FFFFFF" d="M12.078,242.283l1.705,0.431c-0.357,1.4-1,2.469-1.929,3.204s-2.064,1.103-3.406,1.103
		c-1.389,0-2.518-0.282-3.388-0.849c-0.87-0.564-1.532-1.384-1.986-2.456s-0.681-2.224-0.681-3.454c0-1.342,0.256-2.512,0.769-3.512
		c0.513-0.998,1.242-1.758,2.188-2.275c0.946-0.52,1.988-0.778,3.125-0.778c1.289,0,2.373,0.328,3.252,0.984
		s1.491,1.579,1.837,2.769l-1.679,0.396c-0.299-0.938-0.732-1.62-1.301-2.048s-1.283-0.642-2.145-0.642
		c-0.99,0-1.818,0.237-2.483,0.712s-1.132,1.111-1.402,1.912c-0.27,0.799-0.404,1.624-0.404,2.474c0,1.096,0.16,2.052,0.479,2.87
		c0.319,0.816,0.816,1.428,1.49,1.832s1.403,0.606,2.188,0.606c0.955,0,1.764-0.275,2.426-0.826S11.843,243.367,12.078,242.283z"/>
	<path fill="#FFFFFF" d="M15.646,246.801v-12.885h1.582v12.885H15.646z"/>
	<path fill="#FFFFFF" d="M19.091,242.134c0-1.729,0.48-3.009,1.441-3.841c0.803-0.691,1.781-1.037,2.936-1.037
		c1.283,0,2.332,0.421,3.146,1.262s1.222,2.002,1.222,3.484c0,1.201-0.18,2.146-0.541,2.834c-0.36,0.689-0.885,1.224-1.573,1.604
		s-1.44,0.571-2.254,0.571c-1.307,0-2.363-0.419-3.168-1.257S19.091,243.71,19.091,242.134z M20.717,242.134
		c0,1.195,0.261,2.091,0.782,2.685c0.521,0.596,1.178,0.893,1.969,0.893c0.785,0,1.438-0.299,1.96-0.896s0.782-1.509,0.782-2.733
		c0-1.154-0.262-2.028-0.787-2.624c-0.524-0.594-1.176-0.892-1.956-0.892c-0.791,0-1.447,0.296-1.969,0.888
		S20.717,240.938,20.717,242.134z"/>
	<path fill="#FFFFFF" d="M35.782,243.382l1.556,0.202c-0.17,1.072-0.605,1.912-1.305,2.518c-0.7,0.607-1.56,0.91-2.58,0.91
		c-1.277,0-2.304-0.418-3.081-1.252c-0.776-0.836-1.165-2.032-1.165-3.591c0-1.008,0.167-1.89,0.501-2.646s0.842-1.322,1.525-1.701
		c0.683-0.377,1.425-0.566,2.228-0.566c1.014,0,1.843,0.257,2.487,0.77s1.058,1.24,1.239,2.184l-1.538,0.237
		c-0.146-0.627-0.406-1.099-0.778-1.415s-0.822-0.475-1.349-0.475c-0.797,0-1.444,0.285-1.942,0.857
		c-0.498,0.57-0.747,1.475-0.747,2.711c0,1.254,0.24,2.165,0.721,2.733s1.107,0.853,1.881,0.853c0.621,0,1.14-0.19,1.556-0.571
		S35.67,244.173,35.782,243.382z"/>
	<path fill="#FFFFFF" d="M38.7,246.801v-12.885h1.582v7.348l3.744-3.797h2.048l-3.568,3.463l3.929,5.871h-1.951l-3.085-4.772
		l-1.116,1.072v3.7H38.7z"/>
</g>
<g id="DataBit1" enable-background="new    ">
	<path fill="#FFFFFF" d="M78.803,69.204h-6.328V28.88c-1.524,1.453-3.521,2.906-5.994,4.359c-2.473,1.453-4.693,2.543-6.662,3.27
		v-6.117c3.539-1.664,6.632-3.68,9.281-6.047c2.648-2.367,4.523-4.664,5.625-6.891h4.078V69.204z"/>
</g>
<g id="ClockBit2" enable-background="new    ">
	<path fill="#FFFFFF" d="M102.967,205.786c0-6.094,0.627-10.998,1.881-14.713c1.253-3.715,3.117-6.58,5.59-8.596
		c2.473-2.016,5.584-3.023,9.334-3.023c2.765,0,5.191,0.557,7.277,1.67c2.086,1.113,3.809,2.719,5.168,4.816
		c1.359,2.098,2.426,4.652,3.199,7.664s1.16,7.072,1.16,12.182c0,6.047-0.621,10.928-1.863,14.643
		c-1.243,3.715-3.1,6.586-5.572,8.613c-2.473,2.027-5.596,3.041-9.369,3.041c-4.969,0-8.872-1.781-11.707-5.344
		C104.666,222.45,102.967,215.466,102.967,205.786z M109.471,205.786c0,8.461,0.99,14.092,2.971,16.893
		c1.98,2.801,4.424,4.201,7.33,4.201c2.906,0,5.349-1.406,7.33-4.219c1.98-2.813,2.971-8.438,2.971-16.875
		c0-8.484-0.99-14.121-2.971-16.91c-1.981-2.789-4.447-4.184-7.4-4.184c-2.906,0-5.227,1.23-6.961,3.691
		C110.561,191.524,109.471,197.325,109.471,205.786z"/>
</g>
<g id="DataBit2" enable-background="new    ">
	<path fill="#FFFFFF" d="M150.967,43.786c0-6.094,0.627-10.998,1.881-14.713c1.253-3.715,3.117-6.58,5.59-8.596
		c2.473-2.016,5.584-3.023,9.334-3.023c2.765,0,5.191,0.557,7.277,1.67c2.086,1.113,3.809,2.719,5.168,4.816
		c1.359,2.098,2.426,4.652,3.199,7.664s1.16,7.072,1.16,12.182c0,6.047-0.621,10.928-1.863,14.643
		c-1.243,3.715-3.1,6.586-5.572,8.613c-2.473,2.027-5.596,3.041-9.369,3.041c-4.969,0-8.872-1.781-11.707-5.344
		C152.666,60.45,150.967,53.466,150.967,43.786z M157.471,43.786c0,8.461,0.99,14.092,2.971,16.893
		c1.98,2.801,4.424,4.201,7.33,4.201c2.906,0,5.349-1.406,7.33-4.219c1.98-2.813,2.971-8.438,2.971-16.875
		c0-8.484-0.99-14.121-2.971-16.91c-1.981-2.789-4.447-4.184-7.4-4.184c-2.906,0-5.227,1.23-6.961,3.691
		C158.561,29.524,157.471,35.325,157.471,43.786z"/>
</g>
<g id="ClockBit3" enable-background="new    ">
	<path fill="#FFFFFF" d="M198.967,205.786c0-6.094,0.627-10.998,1.881-14.713c1.253-3.715,3.117-6.58,5.59-8.596
		c2.473-2.016,5.584-3.023,9.334-3.023c2.765,0,5.191,0.557,7.277,1.67c2.086,1.113,3.809,2.719,5.168,4.816
		c1.359,2.098,2.426,4.652,3.199,7.664s1.16,7.072,1.16,12.182c0,6.047-0.621,10.928-1.863,14.643
		c-1.243,3.715-3.1,6.586-5.572,8.613c-2.473,2.027-5.596,3.041-9.369,3.041c-4.969,0-8.872-1.781-11.707-5.344
		C200.666,222.45,198.967,215.466,198.967,205.786z M205.471,205.786c0,8.461,0.99,14.092,2.971,16.893
		c1.98,2.801,4.424,4.201,7.33,4.201c2.906,0,5.349-1.406,7.33-4.219c1.98-2.813,2.971-8.438,2.971-16.875
		c0-8.484-0.99-14.121-2.971-16.91c-1.981-2.789-4.447-4.184-7.4-4.184c-2.906,0-5.227,1.23-6.961,3.691
		C206.561,191.524,205.471,197.325,205.471,205.786z"/>
</g>
<g id="DataBit3" enable-background="new    ">
	<path fill="#FFFFFF" d="M270.803,69.204h-6.328V28.88c-1.524,1.453-3.521,2.906-5.994,4.359c-2.473,1.453-4.693,2.543-6.662,3.27
		v-6.117c3.539-1.664,6.632-3.68,9.281-6.047c2.648-2.367,4.523-4.664,5.625-6.891h4.078V69.204z"/>
</g>
<g id="ClockBit4" enable-background="new    ">
	<path fill="#FFFFFF" d="M294.967,205.786c0-6.094,0.627-10.998,1.881-14.713c1.253-3.715,3.117-6.58,5.59-8.596
		c2.473-2.016,5.584-3.023,9.334-3.023c2.765,0,5.191,0.557,7.277,1.67c2.086,1.113,3.809,2.719,5.168,4.816
		c1.359,2.098,2.426,4.652,3.199,7.664s1.16,7.072,1.16,12.182c0,6.047-0.621,10.928-1.863,14.643
		c-1.243,3.715-3.1,6.586-5.572,8.613c-2.473,2.027-5.596,3.041-9.369,3.041c-4.969,0-8.872-1.781-11.707-5.344
		C296.666,222.45,294.967,215.466,294.967,205.786z M301.471,205.786c0,8.461,0.99,14.092,2.971,16.893
		c1.98,2.801,4.424,4.201,7.33,4.201c2.906,0,5.349-1.406,7.33-4.219c1.98-2.813,2.971-8.438,2.971-16.875
		c0-8.484-0.99-14.121-2.971-16.91c-1.981-2.789-4.447-4.184-7.4-4.184c-2.906,0-5.227,1.23-6.961,3.691
		C302.561,191.524,301.471,197.325,301.471,205.786z"/>
</g>
<g id="DataBit4" enable-background="new    ">
	<path fill="#FFFFFF" d="M342.967,43.786c0-6.094,0.627-10.998,1.881-14.713c1.253-3.715,3.117-6.58,5.59-8.596
		c2.473-2.016,5.584-3.023,9.334-3.023c2.765,0,5.191,0.557,7.277,1.67c2.086,1.113,3.809,2.719,5.168,4.816
		c1.359,2.098,2.426,4.652,3.199,7.664s1.16,7.072,1.16,12.182c0,6.047-0.621,10.928-1.863,14.643
		c-1.243,3.715-3.1,6.586-5.572,8.613c-2.473,2.027-5.596,3.041-9.369,3.041c-4.969,0-8.872-1.781-11.707-5.344
		C344.666,60.45,342.967,53.466,342.967,43.786z M349.471,43.786c0,8.461,0.99,14.092,2.971,16.893
		c1.98,2.801,4.424,4.201,7.33,4.201c2.906,0,5.349-1.406,7.33-4.219c1.98-2.813,2.971-8.438,2.971-16.875
		c0-8.484-0.99-14.121-2.971-16.91c-1.981-2.789-4.447-4.184-7.4-4.184c-2.906,0-5.227,1.23-6.961,3.691
		C350.561,29.524,349.471,35.325,349.471,43.786z"/>
</g>
<g id="ClockBit5" enable-background="new    ">
	<path fill="#FFFFFF" d="M414.803,231.204h-6.329V190.88c-1.524,1.453-3.521,2.906-5.994,4.359c-2.473,1.453-4.693,2.543-6.662,3.27
		v-6.117c3.539-1.664,6.632-3.68,9.281-6.047c2.648-2.367,4.523-4.664,5.625-6.891h4.078V231.204z"/>
</g>
<g id="DataBit5" enable-background="new    ">
	<path fill="#FFFFFF" d="M438.967,43.786c0-6.094,0.627-10.998,1.881-14.713s3.117-6.58,5.59-8.596s5.584-3.023,9.334-3.023
		c2.766,0,5.191,0.557,7.277,1.67s3.809,2.719,5.168,4.816s2.426,4.652,3.199,7.664s1.16,7.072,1.16,12.182
		c0,6.047-0.621,10.928-1.863,14.643s-3.1,6.586-5.572,8.613s-5.596,3.041-9.369,3.041c-4.969,0-8.871-1.781-11.707-5.344
		C440.666,60.45,438.967,53.466,438.967,43.786z M445.471,43.786c0,8.461,0.99,14.092,2.971,16.893s4.424,4.201,7.33,4.201
		s5.35-1.406,7.33-4.219s2.971-8.438,2.971-16.875c0-8.484-0.99-14.121-2.971-16.91s-4.447-4.184-7.4-4.184
		c-2.906,0-5.227,1.23-6.961,3.691C446.561,29.524,445.471,35.325,445.471,43.786z"/>
</g>
<g id="ClockBit6" enable-background="new    ">
	<path fill="#FFFFFF" d="M486.967,205.786c0-6.094,0.627-10.998,1.881-14.713s3.117-6.58,5.59-8.596s5.584-3.023,9.334-3.023
		c2.766,0,5.191,0.557,7.277,1.67s3.809,2.719,5.168,4.816s2.426,4.652,3.199,7.664s1.16,7.072,1.16,12.182
		c0,6.047-0.621,10.928-1.863,14.643s-3.1,6.586-5.572,8.613s-5.596,3.041-9.369,3.041c-4.969,0-8.871-1.781-11.707-5.344
		C488.666,222.45,486.967,215.466,486.967,205.786z M493.471,205.786c0,8.461,0.99,14.092,2.971,16.893s4.424,4.201,7.33,4.201
		s5.35-1.406,7.33-4.219s2.971-8.438,2.971-16.875c0-8.484-0.99-14.121-2.971-16.91s-4.447-4.184-7.4-4.184
		c-2.906,0-5.227,1.23-6.961,3.691C494.561,191.524,493.471,197.325,493.471,205.786z"/>
</g>
<g id="DataBit6" enable-background="new    ">
	<path fill="#FFFFFF" d="M534.967,43.786c0-6.094,0.627-10.998,1.881-14.713s3.117-6.58,5.59-8.596s5.584-3.023,9.334-3.023
		c2.766,0,5.191,0.557,7.277,1.67s3.809,2.719,5.168,4.816s2.426,4.652,3.199,7.664s1.16,7.072,1.16,12.182
		c0,6.047-0.621,10.928-1.863,14.643s-3.1,6.586-5.572,8.613s-5.596,3.041-9.369,3.041c-4.969,0-8.871-1.781-11.707-5.344
		C536.666,60.45,534.967,53.466,534.967,43.786z M541.471,43.786c0,8.461,0.99,14.092,2.971,16.893s4.424,4.201,7.33,4.201
		s5.35-1.406,7.33-4.219s2.971-8.438,2.971-16.875c0-8.484-0.99-14.121-2.971-16.91s-4.447-4.184-7.4-4.184
		c-2.906,0-5.227,1.23-6.961,3.691C542.561,29.524,541.471,35.325,541.471,43.786z"/>
</g>
<g id="ClockBit7" enable-background="new    ">
	<path fill="#FFFFFF" d="M606.803,231.204h-6.328V190.88c-1.523,1.453-3.521,2.906-5.994,4.359s-4.693,2.543-6.662,3.27v-6.117
		c3.539-1.664,6.633-3.68,9.281-6.047s4.523-4.664,5.625-6.891h4.078V231.204z"/>
</g>
<g id="DataBit7" enable-background="new    ">
	<path fill="#FFFFFF" d="M630.967,43.786c0-6.094,0.627-10.998,1.881-14.713s3.117-6.58,5.59-8.596s5.584-3.023,9.334-3.023
		c2.766,0,5.191,0.557,7.277,1.67s3.809,2.719,5.168,4.816s2.426,4.652,3.199,7.664s1.16,7.072,1.16,12.182
		c0,6.047-0.621,10.928-1.863,14.643s-3.1,6.586-5.572,8.613s-5.596,3.041-9.369,3.041c-4.969,0-8.871-1.781-11.707-5.344
		C632.666,60.45,630.967,53.466,630.967,43.786z M637.471,43.786c0,8.461,0.99,14.092,2.971,16.893s4.424,4.201,7.33,4.201
		s5.35-1.406,7.33-4.219s2.971-8.438,2.971-16.875c0-8.484-0.99-14.121-2.971-16.91s-4.447-4.184-7.4-4.184
		c-2.906,0-5.227,1.23-6.961,3.691C638.561,29.524,637.471,35.325,637.471,43.786z"/>
</g>
<g id="ClockBit8" enable-background="new    ">
	<path fill="#FFFFFF" d="M678.967,205.786c0-6.094,0.627-10.998,1.881-14.713s3.117-6.58,5.59-8.596s5.584-3.023,9.334-3.023
		c2.766,0,5.191,0.557,7.277,1.67s3.809,2.719,5.168,4.816s2.426,4.652,3.199,7.664s1.16,7.072,1.16,12.182
		c0,6.047-0.621,10.928-1.863,14.643s-3.1,6.586-5.572,8.613s-5.596,3.041-9.369,3.041c-4.969,0-8.871-1.781-11.707-5.344
		C680.666,222.45,678.967,215.466,678.967,205.786z M685.471,205.786c0,8.461,0.99,14.092,2.971,16.893s4.424,4.201,7.33,4.201
		s5.35-1.406,7.33-4.219s2.971-8.438,2.971-16.875c0-8.484-0.99-14.121-2.971-16.91s-4.447-4.184-7.4-4.184
		c-2.906,0-5.227,1.23-6.961,3.691C686.561,191.524,685.471,197.325,685.471,205.786z"/>
</g>
<g id="DataBit8" enable-background="new    ">
	<path fill="#FFFFFF" d="M750.803,69.204h-6.328V28.88c-1.523,1.453-3.521,2.906-5.994,4.359s-4.693,2.543-6.662,3.27v-6.117
		c3.539-1.664,6.633-3.68,9.281-6.047s4.523-4.664,5.625-6.891h4.078V69.204z"/>
</g>
<g id="ClockBit9" enable-background="new    ">
	<path fill="#FFFFFF" d="M774.967,205.786c0-6.094,0.627-10.998,1.881-14.713s3.117-6.58,5.59-8.596s5.584-3.023,9.334-3.023
		c2.766,0,5.191,0.557,7.277,1.67s3.809,2.719,5.168,4.816s2.426,4.652,3.199,7.664s1.16,7.072,1.16,12.182
		c0,6.047-0.621,10.928-1.863,14.643s-3.1,6.586-5.572,8.613s-5.596,3.041-9.369,3.041c-4.969,0-8.871-1.781-11.707-5.344
		C776.666,222.45,774.967,215.466,774.967,205.786z M781.471,205.786c0,8.461,0.99,14.092,2.971,16.893s4.424,4.201,7.33,4.201
		s5.35-1.406,7.33-4.219s2.971-8.438,2.971-16.875c0-8.484-0.99-14.121-2.971-16.91s-4.447-4.184-7.4-4.184
		c-2.906,0-5.227,1.23-6.961,3.691C782.561,191.524,781.471,197.325,781.471,205.786z"/>
</g>
<g id="Flux">
	<path fill="none" stroke="#08BBE6" stroke-width="4" stroke-miterlimit="10" d="M0,175.001c24.5,0,24,0,24,0l0,0h48V75h48l0,0h48
		h48h48v100.001h48l0,0h48h48V75l0,0h96h48h48v100.001l0,0h50.5H744V75h72"/>
</g>
<g enable-background="new    ">
	<path fill="#FFFFFF" d="M55.755,3.31c0.955-0.144,2.089-0.252,3.331-0.252c2.251,0,3.854,0.522,4.916,1.513
		c1.081,0.99,1.71,2.395,1.71,4.357c0,1.98-0.612,3.601-1.746,4.717c-1.135,1.135-3.007,1.747-5.366,1.747
		c-1.117,0-2.053-0.055-2.845-0.145V3.31z M57.322,14.041c0.396,0.072,0.972,0.09,1.584,0.09c3.349,0,5.167-1.873,5.167-5.149
		C64.092,6.118,62.472,4.3,59.159,4.3c-0.811,0-1.422,0.072-1.836,0.162V14.041z"/>
	<path fill="#FFFFFF" d="M72.515,15.283l-0.126-1.099h-0.054c-0.486,0.685-1.422,1.297-2.665,1.297
		c-1.765,0-2.665-1.242-2.665-2.503c0-2.106,1.873-3.259,5.239-3.241v-0.18c0-0.721-0.198-2.017-1.98-2.017
		c-0.81,0-1.656,0.252-2.269,0.648l-0.36-1.045c0.72-0.468,1.765-0.774,2.863-0.774c2.665,0,3.313,1.819,3.313,3.565v3.259
		c0,0.757,0.036,1.495,0.144,2.089H72.515z M72.281,10.836c-1.729-0.036-3.691,0.27-3.691,1.963c0,1.026,0.684,1.512,1.494,1.512
		c1.134,0,1.854-0.72,2.107-1.458c0.054-0.162,0.09-0.342,0.09-0.504V10.836z"/>
	<path fill="#FFFFFF" d="M78.202,4.065v2.503h2.269v1.207h-2.269v4.699c0,1.08,0.306,1.692,1.188,1.692
		c0.414,0,0.72-0.054,0.918-0.108l0.072,1.188c-0.306,0.126-0.792,0.216-1.404,0.216c-0.738,0-1.332-0.233-1.71-0.666
		c-0.45-0.468-0.612-1.242-0.612-2.269V7.775h-1.35V6.568h1.35V4.48L78.202,4.065z"/>
	<path fill="#FFFFFF" d="M87.077,15.283l-0.126-1.099h-0.054c-0.486,0.685-1.423,1.297-2.665,1.297
		c-1.765,0-2.665-1.242-2.665-2.503c0-2.106,1.873-3.259,5.239-3.241v-0.18c0-0.721-0.198-2.017-1.98-2.017
		c-0.81,0-1.657,0.252-2.269,0.648l-0.36-1.045c0.72-0.468,1.765-0.774,2.863-0.774c2.665,0,3.313,1.819,3.313,3.565v3.259
		c0,0.757,0.036,1.495,0.144,2.089H87.077z M86.843,10.836c-1.729-0.036-3.691,0.27-3.691,1.963c0,1.026,0.684,1.512,1.494,1.512
		c1.134,0,1.854-0.72,2.107-1.458c0.054-0.162,0.09-0.342,0.09-0.504V10.836z"/>
</g>
</svg>
