<?xml version="1.0" encoding="utf-8"?>
<!-- Generator: Adobe Illustrator 16.0.0, SVG Export Plug-In . SVG Version: 6.00 Build 0)  -->
<!DOCTYPE svg PUBLIC "-//W3C//DTD SVG 1.1//EN" "http://www.w3.org/Graphics/SVG/1.1/DTD/svg11.dtd">
<svg version="1.1" id="Layer_1" xmlns="http://www.w3.org/2000/svg" xmlns:xlink="http://www.w3.org/1999/xlink" x="0px" y="0px"
	 width="816px" height="250px" viewBox="0 0 816 250" enable-background="new 0 0 816 250" xml:space="preserve">
<g id="BitCell1" enable-background="new    ">
	<g id="ClockCell1">
		<g>
			<rect fill="#404040" width="24" height="250"/>
		</g>
	</g>
</g>
<g id="BitCell2" enable-background="new    ">
	<g id="DataCell1">
		<g>
			<rect x="24" fill="#C0C0C0" width="96" height="250"/>
		</g>
	</g>
</g>
<g id="BitCell3" enable-background="new    ">
	<g id="ClockCell2">
		<g>
			<rect x="120" fill="#404040" width="96" height="250"/>
		</g>
	</g>
</g>
<g id="BitCell4" enable-background="new    ">
	<g id="DataCell2">
		<g>
			<rect x="216" fill="#C0C0C0" width="96" height="250"/>
		</g>
	</g>
</g>
<g id="BitCell5" enable-background="new    ">
	<g id="ClockCell3">
		<g>
			<rect x="312" fill="#404040" width="96" height="250"/>
		</g>
	</g>
</g>
<g id="BitCell6" enable-background="new    ">
	<g id="DataCel3">
		<g>
			<rect x="408" fill="#C0C0C0" width="96" height="250"/>
		</g>
	</g>
</g>
<g id="BitCell7" enable-background="new    ">
	<g id="ClockCell4">
		<g>
			<rect x="504" fill="#404040" width="96" height="250"/>
		</g>
	</g>
</g>
<g id="BitCell8" enable-background="new    ">
	<g id="DataCel4">
		<g>
			<rect x="600" fill="#C0C0C0" width="96" height="250"/>
		</g>
	</g>
</g>
<g id="BitCell9" enable-background="new    ">
	<g id="ClockCell5">
		<g>
			<rect x="696" fill="#404040" width="96" height="250"/>
		</g>
	</g>
</g>
<g id="BitCell10" enable-background="new    ">
	<g id="DataCel5">
		<g>
			<rect x="792" fill="#C0C0C0" width="24" height="250"/>
		</g>
	</g>
</g>
<text id="ClockBit1" transform="matrix(1 0 0 1 3.9785 231.2041)" fill="#FFFFFF" font-family="'ArialMT'" font-size="72">0</text>
<text transform="matrix(1 0 0 1 1.4956 246.8008)" fill="#FFFFFF" font-family="'ArialMT'" font-size="18">Clock</text>
<text id="DataBit1" transform="matrix(1 0 0 1 51.9785 69.2041)" fill="#FFFFFF" font-family="'ArialMT'" font-size="72">1</text>
<text id="ClockBit2" transform="matrix(1 0 0 1 99.9785 231.2041)" fill="#FFFFFF" font-family="'ArialMT'" font-size="72">0</text>
<text id="DataBit2" transform="matrix(1 0 0 1 147.9785 69.2041)" fill="#FFFFFF" font-family="'ArialMT'" font-size="72">1</text>
<text id="ClockBit3" transform="matrix(1 0 0 1 195.9785 231.2041)" fill="#FFFFFF" font-family="'ArialMT'" font-size="72">0</text>
<text id="DataBit3" transform="matrix(1 0 0 1 243.9785 69.2041)" fill="#FFFFFF" font-family="'ArialMT'" font-size="72">0</text>
<text id="ClockBit4" transform="matrix(1 0 0 1 291.9785 231.2041)" fill="#FFFFFF" font-family="'ArialMT'" font-size="72">0</text>
<text id="DataBit4" transform="matrix(1 0 0 1 339.9785 69.2041)" fill="#FFFFFF" font-family="'ArialMT'" font-size="72">1</text>
<text id="ClockBit5" transform="matrix(1 0 0 1 387.978 231.2041)" fill="#FFFFFF" font-family="'ArialMT'" font-size="72">0</text>
<text id="DataBit5" transform="matrix(1 0 0 1 435.9785 69.2041)" fill="#FFFFFF" font-family="'ArialMT'" font-size="72">0</text>
<text id="ClockBit6" transform="matrix(1 0 0 1 483.9785 231.2041)" fill="#FFFFFF" font-family="'ArialMT'" font-size="72">1</text>
<text id="DataBit6" transform="matrix(1 0 0 1 531.9785 69.2041)" fill="#FFFFFF" font-family="'ArialMT'" font-size="72">0</text>
<text id="ClockBit7" transform="matrix(1 0 0 1 579.9785 231.2041)" fill="#FFFFFF" font-family="'ArialMT'" font-size="72">0</text>
<text id="DataBit7" transform="matrix(1 0 0 1 627.9785 69.2041)" fill="#FFFFFF" font-family="'ArialMT'" font-size="72">1</text>
<text id="ClockBit8" transform="matrix(1 0 0 1 675.9785 231.2041)" fill="#FFFFFF" font-family="'ArialMT'" font-size="72">0</text>
<text id="DataBit8" transform="matrix(1 0 0 1 723.9785 69.2041)" fill="#FFFFFF" font-family="'ArialMT'" font-size="72">0</text>
<text id="ClockBit9" transform="matrix(1 0 0 1 767.9883 231.2041)" fill="#FFFFFF" font-family="'ArialMT'" font-size="72">X</text>
<g id="Flux">
	<path fill="none" stroke="#08BBE6" stroke-width="4" stroke-miterlimit="10" d="M0,175.001c24.5,0,24,0,24,0l0,0h48V75h48l0,0h48
		v100.001h48l0,0h96l0,0h48V75h48l0,0h96v100.001h96l0,0h48V75h48l0,0h96"/>
</g>
<text transform="matrix(1 0 0 1 54.3872 15.2832)" fill="#FFFFFF" font-family="'MyriadPro-Regular'" font-size="18">Data</text>
</svg>
